<svg width="24" height="24" viewBox="0 0 24 24" fill="none" xmlns="http://www.w3.org/2000/svg">
<path d="M12.3801 17.92C12.5028 17.8724 12.615 17.801 12.7101 17.71L17.7101 12.71C17.8033 12.6168 17.8773 12.5061 17.9277 12.3842C17.9782 12.2624 18.0042 12.1319 18.0042 12C18.0042 11.7337 17.8984 11.4783 17.7101 11.29C17.6168 11.1968 17.5061 11.1228 17.3843 11.0723C17.2625 11.0219 17.1319 10.9959 17.0001 10.9959C16.7338 10.9959 16.4784 11.1017 16.2901 11.29L13.0001 14.59L13.0001 7C13.0001 6.73478 12.8947 6.48043 12.7072 6.29289C12.5196 6.10536 12.2653 6 12.0001 6C11.7348 6 11.4805 6.10536 11.293 6.29289C11.1054 6.48043 11.0001 6.73478 11.0001 7L11.0001 14.59L7.71006 11.29C7.61709 11.1963 7.5065 11.1219 7.38464 11.0711C7.26278 11.0203 7.13207 10.9942 7.00006 10.9942C6.86805 10.9942 6.73734 11.0203 6.61548 11.0711C6.49362 11.1219 6.38302 11.1963 6.29006 11.29C6.19633 11.383 6.12194 11.4936 6.07117 11.6154C6.0204 11.7373 5.99426 11.868 5.99426 12C5.99426 12.132 6.0204 12.2627 6.07117 12.3846C6.12194 12.5064 6.19633 12.617 6.29006 12.71L11.2901 17.71C11.3852 17.801 11.4973 17.8724 11.6201 17.92C11.8635 18.02 12.1366 18.02 12.3801 17.92Z" fill="#1A1A1A"/>
</svg>
