<svg width="57" height="57" viewBox="0 0 57 57" fill="none" xmlns="http://www.w3.org/2000/svg">
<path d="M29.2495 45.2909C29.2495 45.2909 10.6148 50.8702 8.04837 49.9775C7.11525 49.6529 6.60405 49.1819 6.15142 48.3037C4.92919 45.9324 11.5075 44.0635 11.5075 44.0635L19.8764 41.3855C19.8764 41.3855 12.7647 43.3602 13.9624 41.3855C14.4957 40.5061 14.8551 40.2696 16.0825 39.8233C18.5149 38.9388 22.4428 38.819 23.2239 38.7074C23.3344 38.6916 30.1422 37.9257 30.1422 40.7159C30.1422 41.8266 17.6447 44.733 17.6447 44.733L32.0392 41.3855C32.0392 41.3855 38.8135 40.1508 39.5154 43.0592C40.1024 45.4919 35.8331 48.3037 35.8331 48.3037C35.8331 48.3037 38.5153 51.381 37.6184 53.2135C36.7753 54.9361 34.9613 55.0102 33.0434 54.9988C30.3228 54.9827 27.9413 53.9132 27.1294 51.3165C26.385 48.9356 29.2495 45.2909 29.2495 45.2909Z" fill="#95AF98"/>
<path d="M32.8202 8.69132C32.8202 8.69132 14.1855 14.2706 11.619 13.3779C10.6859 13.0533 10.1747 12.5823 9.7221 11.7041C8.49986 9.33277 15.0782 7.46389 15.0782 7.46389L23.4471 4.78584C23.4471 4.78584 16.3354 6.76062 17.5331 4.78584C18.0664 3.90648 18.4257 3.66999 19.6532 3.22365C22.0855 2.33916 26.0135 2.21938 26.7946 2.1078C26.9051 2.09201 33.7129 1.32606 33.7129 4.11633C33.7129 5.22699 21.2154 8.1334 21.2154 8.1334L35.6098 4.78584C35.6098 4.78584 42.3842 3.55119 43.086 6.45962C43.6731 8.89232 39.4037 11.7041 39.4037 11.7041C39.4037 11.7041 42.086 14.7814 41.1891 16.6139C40.346 18.3365 38.5319 18.4106 36.6141 18.3992C33.8935 18.3831 31.5119 17.3136 30.7001 14.7169C29.9557 12.336 32.8202 8.69132 32.8202 8.69132Z" fill="#74A3AE"/>
<path d="M16.2982 11.819C14.3045 13.5151 12.4001 15.241 12.0431 15.6278C11.686 15.9849 10.347 17.2346 9.06746 18.3356C7.81771 19.4365 6.83576 20.4185 6.89527 20.478C7.19283 20.7756 9.45429 20.2102 9.45429 19.8234C9.45429 18.9902 11.0909 17.5619 14.8104 15.0922C19.125 12.2654 20.1962 11.6405 20.9401 11.6405C21.2674 11.6405 21.3865 11.819 21.2674 12.2058C21.1484 12.6522 21.684 13.2175 23.5586 14.7053C24.8679 15.7468 27.9328 18.157 30.3133 20.0317L34.6576 23.4536L42.424 23.6024C46.7088 23.6917 50.22 23.6619 50.22 23.5429C50.22 23.4239 49.3274 23.3048 48.2264 23.2751C47.0956 23.2453 44.2688 23.0965 41.8883 22.9478C39.5079 22.799 37.2762 22.6502 36.9191 22.6502C36.5323 22.6502 35.3123 21.8468 34.0923 20.7756C32.902 19.7341 29.2123 16.6097 25.9094 13.7829L19.8986 8.69463L16.2982 11.819Z" fill="black"/>
<path d="M29.7181 26.102C29.7181 26.4293 29.8074 26.5186 29.8967 26.2805C29.9859 26.0723 29.9562 25.8045 29.8669 25.7152C29.7776 25.5962 29.6884 25.7747 29.7181 26.102Z" fill="black"/>
<path d="M29.4502 27.8578C29.4502 28.3339 29.5097 28.5124 29.599 28.2149C29.6585 27.9471 29.6585 27.5305 29.599 27.3222C29.5097 27.1437 29.4502 27.352 29.4502 27.8578Z" fill="black"/>
<path d="M28.9742 30.1488C28.8849 30.863 28.6171 32.1425 28.4386 32.9756C28.141 34.4337 28.0518 34.5527 27.2483 34.5527C25.3737 34.5527 18.2025 33.3029 17.8157 32.9161C17.5776 32.6781 17.2801 31.9044 17.161 31.22C16.9825 30.2678 16.9528 30.4464 17.0718 31.8747C17.161 32.9459 17.2801 33.8386 17.3396 33.8981C17.3991 33.9576 19.6308 34.3444 22.3088 34.7312C24.9869 35.1181 27.4269 35.5049 27.7839 35.5644C28.3493 35.7132 28.4386 35.4751 28.9444 32.4698C29.242 30.6547 29.4205 29.1073 29.3313 29.0181C29.242 28.9586 29.0932 29.4644 28.9742 30.1488Z" fill="black"/>
<path d="M13.2035 32.6784C13.5308 38.0345 13.6498 38.5106 14.6615 38.7784C15.7625 39.1057 19.8093 39.9091 25.3737 40.9506C27.6649 41.3672 30.1644 41.8433 30.9083 41.9921C32.2771 42.2599 32.3366 42.2301 39.0912 38.8082C42.8405 36.9335 46.0244 35.2672 46.1731 35.1482C46.3219 34.9994 44.9829 35.416 43.1975 36.0706C41.4122 36.7252 38.4961 37.7965 36.7107 38.4213L33.4673 39.5818L33.6756 36.6955C33.7649 35.1184 33.9434 32.9462 34.0029 31.875C34.122 30.2979 33.9732 30.774 33.0805 34.553C32.5151 37.0823 31.92 39.2545 31.8307 39.3735C31.7117 39.4628 30.9678 39.433 30.1346 39.2843C29.3312 39.1355 25.4629 38.5701 21.5352 37.975C17.6371 37.4096 14.3937 36.9038 14.3342 36.8443C14.2747 36.7847 13.9474 35.2077 13.6201 33.333L13.0547 29.9409L13.2035 32.6784Z" fill="black"/>
<line x1="29.6463" y1="25.7674" x2="16.9256" y2="24.6516" stroke="black" stroke-width="0.22317"/>
<path d="M17.599 24.6491C17.5675 24.3426 17.2935 24.1196 16.987 24.151C16.6805 24.1825 16.4575 24.4565 16.4889 24.763L17.599 24.6491ZM16.4889 24.763L17.3816 33.4666L18.4916 33.3528L17.599 24.6491L16.4889 24.763Z" fill="#74A3AE"/>
<path d="M21.2599 11.6152L9.57065 19.1839" stroke="#74A3AE" stroke-width="1.11585" stroke-linecap="round"/>
<path d="M49.7413 24.3169L34.7889 23.8706" stroke="#74A3AE" stroke-width="1.56219" stroke-linecap="round"/>
<line x1="28.0081" y1="34.4644" x2="17.9655" y2="32.9022" stroke="#74A3AE" stroke-width="1.11585"/>
<path d="M20.2828 8.5835L36.5743 13.1585L50.0761 23.4243L36.5743 22.7548L20.2828 8.5835Z" fill="#F5F5F5"/>
</svg>
