<svg width="21" height="21" viewBox="0 0 21 21" fill="none" xmlns="http://www.w3.org/2000/svg">
<path d="M18.44 11.5109C18.22 11.5109 17.99 11.4409 17.77 11.3909C17.3245 11.2927 16.8866 11.1623 16.46 11.0009C15.9961 10.8321 15.4861 10.8408 15.0283 11.0255C14.5704 11.2101 14.1971 11.5575 13.98 12.0009L13.76 12.4509C12.786 11.909 11.891 11.2361 11.1 10.4509C10.3147 9.65987 9.6418 8.76485 9.09998 7.79085L9.51998 7.51085C9.96334 7.29377 10.3108 6.92038 10.4954 6.46255C10.68 6.00471 10.6888 5.49477 10.52 5.03085C10.3612 4.60328 10.2309 4.16565 10.13 3.72085C10.08 3.50085 10.04 3.27085 10.01 3.04085C9.88854 2.33647 9.5196 1.6986 8.9696 1.24209C8.4196 0.785591 7.72467 0.540463 7.00998 0.550854H4.00998C3.57901 0.546808 3.15223 0.635668 2.75869 0.811385C2.36515 0.987102 2.01409 1.24555 1.72941 1.56914C1.44473 1.89272 1.23311 2.27385 1.10897 2.68657C0.98482 3.09929 0.951058 3.53391 1.00998 3.96085C1.54272 8.15024 3.45601 12.0427 6.44763 15.0235C9.43925 18.0042 13.3387 19.9034 17.53 20.4209H17.91C18.6474 20.4219 19.3594 20.1514 19.91 19.6609C20.2263 19.3779 20.4791 19.031 20.6514 18.6432C20.8238 18.2553 20.9119 17.8353 20.91 17.4109V14.4109C20.8977 13.7162 20.6448 13.0474 20.1943 12.5185C19.7439 11.9896 19.1238 11.6335 18.44 11.5109ZM18.94 17.5109C18.9398 17.6528 18.9094 17.7932 18.8508 17.9225C18.7921 18.0518 18.7066 18.1671 18.6 18.2609C18.4886 18.3579 18.358 18.4303 18.2167 18.4734C18.0754 18.5164 17.9266 18.5292 17.78 18.5109C14.0349 18.0307 10.5562 16.3173 7.89269 13.6411C5.22917 10.9649 3.53239 7.47819 3.06998 3.73085C3.05406 3.58437 3.06801 3.43618 3.11098 3.29525C3.15395 3.15431 3.22505 3.02354 3.31998 2.91085C3.41369 2.80419 3.52904 2.7187 3.65836 2.66007C3.78767 2.60145 3.92799 2.57103 4.06998 2.57085H7.06998C7.30253 2.56568 7.5296 2.64173 7.71212 2.78593C7.89464 2.93012 8.02119 3.13342 8.06998 3.36085C8.10998 3.63419 8.15998 3.90419 8.21998 4.17085C8.3355 4.698 8.48924 5.21603 8.67998 5.72085L7.27998 6.37085C7.16028 6.42578 7.0526 6.5038 6.96314 6.60045C6.87367 6.6971 6.80418 6.81047 6.75865 6.93405C6.71312 7.05763 6.69245 7.18899 6.69783 7.32058C6.7032 7.45217 6.73452 7.5814 6.78998 7.70085C8.22918 10.7836 10.7072 13.2617 13.79 14.7009C14.0334 14.8009 14.3065 14.8009 14.55 14.7009C14.6747 14.6562 14.7893 14.5873 14.8871 14.498C14.985 14.4088 15.0641 14.301 15.12 14.1809L15.74 12.7809C16.2569 12.9657 16.7846 13.1193 17.32 13.2409C17.5866 13.3009 17.8566 13.3509 18.13 13.3909C18.3574 13.4396 18.5607 13.5662 18.7049 13.7487C18.8491 13.9312 18.9252 14.1583 18.92 14.3909L18.94 17.5109Z" fill="#F5F5F5"/>
</svg>
