<svg width="24" height="25" viewBox="0 0 24 25" fill="none" xmlns="http://www.w3.org/2000/svg">
<path d="M18.0001 4.99065C16.4088 3.39935 14.2505 2.50537 12.0001 2.50537C9.74961 2.50537 7.59135 3.39935 6.00005 4.99065C4.40875 6.58195 3.51477 8.74022 3.51477 10.9907C3.51477 13.2411 4.40875 15.3994 6.00005 16.9907L11.2701 22.2707C11.363 22.3644 11.4736 22.4388 11.5955 22.4895C11.7173 22.5403 11.848 22.5665 11.9801 22.5665C12.1121 22.5665 12.2428 22.5403 12.3646 22.4895C12.4865 22.4388 12.5971 22.3644 12.6901 22.2707L18.0001 16.9407C19.5847 15.356 20.4749 13.2067 20.4749 10.9657C20.4749 8.7246 19.5847 6.57533 18.0001 4.99065ZM16.5701 15.5107L12.0001 20.1007L7.43005 15.5107C6.5272 14.607 5.91253 13.4559 5.66375 12.2029C5.41497 10.95 5.54324 9.6514 6.03236 8.47133C6.52147 7.29127 7.34947 6.2827 8.41168 5.57313C9.4739 4.86356 10.7226 4.48483 12.0001 4.48483C13.2775 4.48483 14.5262 4.86356 15.5884 5.57313C16.6506 6.2827 17.4786 7.29127 17.9677 8.47133C18.4569 9.6514 18.5851 10.95 18.3364 12.2029C18.0876 13.4559 17.4729 14.607 16.5701 15.5107ZM9.00005 7.92065C8.19277 8.73042 7.73945 9.82722 7.73945 10.9707C7.73945 12.1141 8.19277 13.2109 9.00005 14.0207C9.59981 14.6214 10.3636 15.0317 11.1957 15.2001C12.0278 15.3684 12.891 15.2872 13.6771 14.9668C14.4632 14.6464 15.1372 14.1009 15.6145 13.3989C16.0918 12.6969 16.3512 11.8695 16.3601 11.0207C16.3646 10.4539 16.2554 9.89191 16.039 9.36804C15.8225 8.84417 15.5033 8.36901 15.1001 7.97065C14.7037 7.56523 14.2311 7.24219 13.7095 7.02012C13.1878 6.79805 12.6274 6.68133 12.0605 6.67668C11.4935 6.67203 10.9313 6.77955 10.406 6.99304C9.8808 7.20653 9.40297 7.52178 9.00005 7.92065ZM13.6901 12.6007C13.3111 12.9854 12.8103 13.2266 12.2732 13.2829C11.7361 13.3393 11.1961 13.2073 10.7456 12.9096C10.295 12.6119 9.96185 12.1669 9.80306 11.6507C9.64427 11.1346 9.6697 10.5793 9.87501 10.0798C10.0803 9.58033 10.4528 9.16767 10.9286 8.91239C11.4045 8.65711 11.9543 8.57506 12.484 8.68027C13.0137 8.78548 13.4904 9.07141 13.8326 9.48918C14.1748 9.90696 14.3612 10.4306 14.3601 10.9707C14.3455 11.5879 14.0865 12.1742 13.6401 12.6007H13.6901Z" fill="#F5F5F5"/>
</svg>
