<svg width="34" height="34" viewBox="0 0 34 34" fill="none" xmlns="http://www.w3.org/2000/svg">
<path d="M17.3332 0.17041C14.0368 0.17041 10.8145 1.14789 8.07367 2.97925C5.33285 4.81061 3.19665 7.41358 1.93519 10.459C0.673725 13.5045 0.34367 16.8556 0.986757 20.0886C1.62984 23.3216 3.21719 26.2913 5.54807 28.6222C7.87894 30.9531 10.8487 32.5404 14.0817 33.1835C17.3147 33.8266 20.6658 33.4965 23.7112 32.2351C26.7567 30.9736 29.3596 28.8374 31.191 26.0966C33.0224 23.3558 33.9998 20.1334 33.9998 16.8371C33.9998 14.6484 33.5687 12.4811 32.7312 10.459C31.8936 8.43693 30.6659 6.59961 29.1183 5.05196C27.5706 3.50432 25.7333 2.27666 23.7112 1.43908C21.6891 0.601506 19.5219 0.17041 17.3332 0.17041ZM17.3332 30.1704C14.6961 30.1704 12.1182 29.3884 9.92557 27.9233C7.73292 26.4583 6.02395 24.3759 5.01478 21.9395C4.00562 19.5032 3.74157 16.8223 4.25604 14.2359C4.77051 11.6495 6.04039 9.27369 7.90509 7.40899C9.76979 5.54429 12.1456 4.27441 14.732 3.75994C17.3184 3.24547 19.9993 3.50952 22.4356 4.51868C24.872 5.52785 26.9544 7.23682 28.4194 9.42947C29.8845 11.6221 30.6665 14.2 30.6665 16.8371C30.6665 20.3733 29.2618 23.7647 26.7613 26.2652C24.2608 28.7657 20.8694 30.1704 17.3332 30.1704ZM18.9998 16.7204V8.50374C18.9998 8.06172 18.8242 7.63779 18.5117 7.32523C18.1991 7.01267 17.7752 6.83708 17.3332 6.83708C16.8912 6.83708 16.4672 7.01267 16.1547 7.32523C15.8421 7.63779 15.6665 8.06172 15.6665 8.50374V16.8371C15.6665 16.8371 15.6665 16.9537 15.6665 17.0204C15.6255 17.3592 15.6895 17.7025 15.8498 18.0037L18.3498 22.3371C18.5709 22.7216 18.9356 23.0027 19.3638 23.1183C19.792 23.234 20.2486 23.1748 20.6332 22.9537C21.0177 22.7327 21.2988 22.368 21.4144 21.9398C21.5301 21.5116 21.4709 21.055 21.2498 20.6704L18.9998 16.7204Z" fill="white"/>
</svg>
